# This file uses centimeters as units for non-parametric coordinates.

mtllib roadtile.mtl
g default
v 865.720398 -440.217407 306.247894
v 865.720398 -440.217407 -343.870758
v 1247.515991 -40.917358 306.247894
v 1247.515991 -40.917358 -343.870758
v 1331.896240 -40.917358 306.247894
v 1331.896240 -40.917358 -343.870758
v 2729.146973 -40.917358 306.247894
v 2729.146973 -40.917358 -343.870758
v 1247.515991 202.661011 306.247894
v 1247.515991 202.661011 -343.870758
v 1331.896240 202.661011 -343.870758
v 1331.896240 202.661011 306.247894
v 270.260742 -440.217407 306.247894
v 270.260742 -440.217407 -343.870758
v -865.732849 -440.217407 306.247894
v -865.732849 -440.217407 -343.870758
v -1247.533936 -40.917358 306.247894
v -1247.533936 -40.917358 -343.870758
v -1331.915405 -40.917358 306.247894
v -1331.915405 -40.917358 -343.870758
v -2729.186279 -40.917358 306.247894
v -2729.186279 -40.917358 -343.870758
v -1247.533936 202.661011 306.247894
v -1247.533936 202.661011 -343.870758
v -1331.915405 202.661011 -343.870758
v -1331.915405 202.661011 306.247894
v -270.262024 -440.217407 306.247894
v -270.262024 -440.217407 -343.870758
v 88.281204 -11.499970 306.247864
v 88.281204 -11.499970 -343.870758
v -88.281204 -11.499970 -343.870758
v -88.281204 -11.499970 306.247864
v -549.781860 -11.499970 306.247864
v -549.781860 -11.499970 -343.870758
v -507.547791 24.003857 -343.870758
v -507.547791 24.003857 306.247864
v -507.547791 54.590603 306.247864
v -507.547791 54.590603 -343.870758
v -549.781860 69.849930 306.247864
v -536.067383 69.850021 306.247864
v -536.067383 69.850021 -343.870758
v -549.781860 69.849930 -343.870758
v -81.499466 24.003857 -343.870758
v -81.499466 24.003857 306.247864
v 549.781860 -11.499970 306.247864
v 549.781860 -11.499970 -343.870758
v 507.547791 24.003857 -343.870758
v 507.547791 24.003857 306.247864
v 507.547791 54.590603 306.247864
v 507.547791 54.590603 -343.870758
v 549.781860 69.849930 306.247864
v 536.067383 69.850021 306.247864
v 536.067383 69.850021 -343.870758
v 549.781860 69.849930 -343.870758
v 81.499466 24.003857 -343.870758
v 81.499466 24.003857 306.247864
vt 0.001987 0.503823
vt 0.001987 0.997364
vt 0.504677 0.496661
vt 0.717377 0.496661
vt 0.717377 0.997924
vt 0.504677 0.997924
vt 0.001987 0.503823
vt 0.495528 0.503823
vt 0.495528 0.997364
vt 0.001987 0.997364
vt 0.012273 0.013994
vt 0.695405 0.013994
vt 0.695405 0.492853
vt 0.012273 0.492853
vt 0.001987 0.503823
vt 0.495528 0.503823
vt 0.495528 0.997364
vt 0.001987 0.997364
vt 0.223597 0.503823
vt 0.223597 0.997364
vt 0.001987 0.503823
vt 0.223597 0.503823
vt 0.223597 0.997364
vt 0.001987 0.997364
vt 0.769121 0.496661
vt 0.769121 0.997924
vt 0.498911 0.997924
vt 0.498911 0.496661
vt 0.001987 0.503823
vt 0.495528 0.503823
vt 0.495528 0.997364
vt 0.001987 0.997364
vt 0.683982 0.013994
vt 0.683982 0.492853
vt 0.000841 0.492853
vt 0.000841 0.013994
vt 0.001987 0.503823
vt 0.495528 0.503823
vt 0.495528 0.997364
vt 0.001987 0.997364
vt 0.001987 0.503823
vt 0.495528 0.503823
vt 0.495528 0.997364
vt 0.001987 0.997364
vt 0.001987 0.503823
vt 0.495528 0.503823
vt 0.495528 0.997364
vt 0.001987 0.997364
vt 0.053650 0.541835
vt 0.052490 0.560938
vt 0.040221 0.569757
vt 0.034600 0.569416
vt 0.175420 0.551789
vt 0.192763 0.580475
vt 0.187131 0.580475
vt 0.175420 0.570927
vt 0.011052 0.507213
vt 0.490922 0.504300
vt 0.491562 0.583735
vt 0.011691 0.586648
vt 0.002285 0.998867
vt 0.002285 0.498552
vt 0.015365 0.498552
vt 0.015365 0.998867
vt 0.015365 0.498552
vt 0.015365 0.998867
vt 0.493569 0.508443
vt 0.493561 0.590250
vt 0.002924 0.587379
vt 0.002932 0.505572
vt 0.192763 0.529575
vt 0.037687 0.518610
vt 0.031959 0.551789
vt 0.034745 0.529575
vt 0.210756 0.498552
vt 0.210756 0.998867
vt 0.195414 0.528194
vt 0.196847 0.550536
vt 0.416099 0.505986
vt 0.416099 0.588230
vt 0.002909 0.588230
vt 0.002909 0.505986
vt 0.053650 0.541835
vt 0.034600 0.569416
vt 0.040221 0.569757
vt 0.052490 0.560938
vt 0.175420 0.551789
vt 0.175420 0.570927
vt 0.187131 0.580475
vt 0.192763 0.580475
vt 0.011052 0.507213
vt 0.011691 0.586648
vt 0.491562 0.583735
vt 0.490922 0.504300
vt 0.493979 0.998867
vt 0.480900 0.998867
vt 0.480900 0.498552
vt 0.493979 0.498552
vt 0.480900 0.498552
vt 0.480900 0.998867
vt 0.493569 0.508443
vt 0.002932 0.505572
vt 0.002924 0.587379
vt 0.493561 0.590250
vt 0.192763 0.529575
vt 0.037687 0.518610
vt 0.034745 0.529575
vt 0.031959 0.551789
vt 0.285509 0.998867
vt 0.285509 0.498552
vt 0.196847 0.550536
vt 0.195414 0.528194
vt 0.416099 0.505986
vt 0.002909 0.505986
vt 0.002909 0.588230
vt 0.416099 0.588230
vt 0.001987 0.997364
vt 0.495528 0.997364
vt 0.495528 0.503823
vt 0.001987 0.503823
vt 0.001987 0.503823
vt 0.495528 0.503823
vt 0.495528 0.997364
vt 0.001987 0.997364
vt 0.955942 0.024982
vt 0.727069 0.024982
vt 0.804125 0.361465
vt 0.878887 0.361465
vt 0.727069 0.024982
vt 0.955942 0.024982
vt 0.878887 0.361465
vt 0.804125 0.361465
vt 0.834575 0.447040
vt 0.783588 0.447040
vt 0.783588 0.994005
vt 0.834575 0.994005
vt 0.992901 0.447040
vt 0.992901 0.994005
vt 0.832852 0.447040
vt 0.832852 0.994005
vt 0.781865 0.994005
vt 0.781865 0.447040
vt 0.991179 0.447040
vt 0.991179 0.994005
vn 0.000000 1.000000 0.000000
vn 0.000000 1.000000 0.000000
vn 0.000000 1.000000 0.000000
vn 0.000000 1.000000 0.000000
vn -0.722772 0.691087 0.000000
vn -0.722772 0.691087 0.000000
vn -0.722772 0.691087 0.000000
vn -0.722772 0.691087 0.000000
vn 0.000000 1.000000 0.000000
vn 0.000000 1.000000 0.000000
vn 0.000000 1.000000 0.000000
vn 0.000000 1.000000 0.000000
vn 0.000000 1.000000 0.000000
vn 0.000000 1.000000 0.000000
vn 0.000000 1.000000 0.000000
vn 0.000000 1.000000 0.000000
vn -1.000000 0.000000 0.000000
vn -1.000000 0.000000 0.000000
vn -1.000000 0.000000 0.000000
vn -1.000000 0.000000 0.000000
vn 0.000000 0.000000 -1.000000
vn 0.000000 0.000000 -1.000000
vn 0.000000 0.000000 -1.000000
vn 0.000000 0.000000 -1.000000
vn 0.000000 0.000000 1.000000
vn 0.000000 0.000000 1.000000
vn 0.000000 0.000000 1.000000
vn 0.000000 0.000000 1.000000
vn 0.000000 1.000000 0.000000
vn 0.000000 1.000000 0.000000
vn 0.000000 1.000000 0.000000
vn 0.000000 1.000000 0.000000
vn 0.722767 0.691092 0.000000
vn 0.722767 0.691092 0.000000
vn 0.722767 0.691092 0.000000
vn 0.722767 0.691092 0.000000
vn 0.000000 1.000000 0.000000
vn 0.000000 1.000000 0.000000
vn 0.000000 1.000000 0.000000
vn 0.000000 1.000000 0.000000
vn 0.000000 1.000000 0.000000
vn 0.000000 1.000000 0.000000
vn 0.000000 1.000000 0.000000
vn 0.000000 1.000000 0.000000
vn 1.000000 0.000000 0.000000
vn 1.000000 0.000000 0.000000
vn 1.000000 0.000000 0.000000
vn 1.000000 0.000000 0.000000
vn 0.000000 0.000000 -1.000000
vn 0.000000 0.000000 -1.000000
vn 0.000000 0.000000 -1.000000
vn 0.000000 0.000000 -1.000000
vn 0.000000 0.000000 1.000000
vn 0.000000 0.000000 1.000000
vn 0.000000 0.000000 1.000000
vn 0.000000 0.000000 1.000000
vn 0.000000 1.000000 0.000000
vn 0.000000 1.000000 0.000000
vn 0.000000 1.000000 0.000000
vn 0.000000 1.000000 0.000000
vn 0.920505 0.390731 0.000000
vn 0.920505 0.390731 0.000000
vn 0.920505 0.390731 0.000000
vn 0.920505 0.390731 0.000000
vn 0.000000 0.000000 -1.000000
vn 0.000000 0.000000 -1.000000
vn 0.000000 0.000000 -1.000000
vn 0.000000 0.000000 -1.000000
vn -0.920504 0.390733 0.000000
vn -0.920504 0.390733 0.000000
vn -0.920504 0.390733 0.000000
vn -0.920504 0.390733 0.000000
vn 0.000000 0.000000 1.000000
vn 0.000000 0.000000 1.000000
vn 0.000000 0.000000 1.000000
vn 0.000000 0.000000 1.000000
vn -0.000000 0.000000 1.000000
vn -0.000001 0.000000 1.000000
vn -0.000001 0.000000 1.000000
vn -0.000000 0.000000 1.000000
vn 0.000000 0.000000 -1.000000
vn 0.000000 0.000000 -1.000000
vn 0.000000 0.000000 -1.000000
vn 0.000000 0.000000 -1.000000
vn -1.000000 0.000000 0.000000
vn -1.000000 0.000000 0.000000
vn -1.000000 0.000000 0.000000
vn -1.000000 0.000000 0.000000
vn 0.471766 0.881724 0.000000
vn 0.471766 0.881724 0.000000
vn 0.471766 0.881724 0.000000
vn 0.471766 0.881724 0.000000
vn 1.000000 0.000000 0.000000
vn 1.000000 0.000000 0.000000
vn 1.000000 0.000000 0.000000
vn 1.000000 0.000000 0.000000
vn -0.000007 1.000000 0.000000
vn -0.000007 1.000000 0.000000
vn -0.000007 1.000000 0.000000
vn -0.000007 1.000000 0.000000
vn 0.000000 0.000000 -1.000000
vn 0.000000 0.000000 1.000000
vn 0.000000 0.000000 -1.000000
vn 0.000000 0.000000 -1.000000
vn 0.000000 1.000000 0.000000
vn 0.000000 1.000000 0.000000
vn 0.000000 1.000000 0.000000
vn 0.000000 1.000000 0.000000
vn 0.000000 0.000000 1.000000
vn 0.000000 0.000000 1.000000
vn 0.000000 -1.000000 0.000000
vn 0.000000 -1.000000 0.000000
vn 0.000000 -1.000000 0.000000
vn 0.000000 -1.000000 0.000000
vn 0.000000 0.000000 1.000000
vn 0.000000 0.000000 1.000000
vn 0.000001 0.000000 1.000000
vn 0.000001 0.000000 1.000000
vn 0.000000 0.000000 -1.000000
vn 0.000000 0.000000 -1.000000
vn 0.000000 0.000000 -1.000000
vn 0.000000 0.000000 -1.000000
vn 1.000000 0.000000 0.000000
vn 1.000000 0.000000 0.000000
vn 1.000000 0.000000 0.000000
vn 1.000000 0.000000 0.000000
vn -0.471766 0.881724 0.000000
vn -0.471766 0.881724 0.000000
vn -0.471766 0.881724 0.000000
vn -0.471766 0.881724 0.000000
vn -1.000000 0.000000 0.000000
vn -1.000000 0.000000 0.000000
vn -1.000000 0.000000 0.000000
vn -1.000000 0.000000 0.000000
vn 0.000007 1.000000 0.000000
vn 0.000007 1.000000 0.000000
vn 0.000007 1.000000 0.000000
vn 0.000007 1.000000 0.000000
vn 0.000000 0.000000 -1.000000
vn 0.000000 0.000000 1.000000
vn 0.000000 0.000000 -1.000000
vn 0.000000 0.000000 -1.000000
vn 0.000000 1.000000 0.000000
vn 0.000000 1.000000 0.000000
vn 0.000000 1.000000 0.000000
vn 0.000000 1.000000 0.000000
vn 0.000000 0.000000 1.000000
vn 0.000000 0.000000 1.000000
vn 0.000000 -1.000000 0.000000
vn 0.000000 -1.000000 0.000000
vn 0.000000 -1.000000 0.000000
vn 0.000000 -1.000000 0.000000
vn 0.000000 1.000000 0.000000
vn 0.000000 1.000000 0.000000
vn 0.000000 1.000000 0.000000
vn 0.000000 1.000000 0.000000
vn 0.000000 0.000000 1.000000
vn 0.000000 0.000000 1.000000
vn 0.000000 0.000000 1.000000
vn 0.000000 0.000000 1.000000
vn 0.000000 0.000000 -1.000000
vn 0.000000 0.000000 -1.000000
vn 0.000000 0.000000 -1.000000
vn 0.000000 0.000000 -1.000000
s off
g pPlane4
usemtl phong1SG
f 1/1/1 2/2/2 14/20/3 13/19/4
f 1/3/5 3/4/6 4/5/7 2/6/8
f 9/133/9 12/134/10 11/135/11 10/136/12
f 5/11/13 7/12/14 8/13/15 6/14/16
f 3/137/17 9/133/18 10/136/19 4/138/20
f 4/8/21 10/16/22 11/17/23 6/9/24
f 5/10/25 12/18/26 9/15/27 3/7/28
f 15/21/29 27/22/30 28/23/31 16/24/32
f 15/25/33 16/26/34 18/27/35 17/28/36
f 23/139/37 24/140/38 25/141/39 26/142/40
f 19/33/41 20/34/42 22/35/43 21/36/44
f 17/143/45 18/144/46 24/140/47 23/139/48
f 18/38/49 20/39/50 25/31/51 24/30/52
f 19/40/53 17/37/54 23/29/55 26/32/56
f 29/45/57 30/46/58 31/47/59 32/48/60
f 13/41/61 14/42/62 30/46/63 29/45/64
f 14/125/65 28/126/66 31/127/67 30/128/68
f 28/43/69 27/44/70 32/48/71 31/47/72
f 27/129/73 13/130/74 29/131/75 32/132/76
s 1
f 36/49/77 37/50/78 40/51/79 39/52/80
s 2
f 35/53/81 42/54/82 41/55/83 38/56/84
s off
f 34/57/85 33/58/86 39/59/87 42/60/88
f 41/61/89 40/62/90 37/63/91 38/64/92
f 36/65/93 35/66/94 38/64/95 37/63/96
f 39/67/97 40/68/98 41/69/99 42/70/100
s 2
f 34/71/101 42/54/82 35/53/81
s 1
f 36/49/77 39/52/80 33/72/102
s 2
f 34/71/101 35/53/81 43/73/103 31/74/104
s off
f 35/66/105 36/65/106 44/75/107 43/76/108
s 1
f 36/49/77 33/72/102 32/77/109 44/78/110
s off
f 31/79/111 32/80/112 33/81/113 34/82/114
s 3
f 48/83/115 51/84/116 52/85/117 49/86/118
s 4
f 47/87/119 50/88/120 53/89/121 54/90/122
s off
f 46/91/123 54/92/124 51/93/125 45/94/126
f 53/95/127 50/96/128 49/97/129 52/98/130
f 48/99/131 49/97/132 50/96/133 47/100/134
f 51/101/135 54/102/136 53/103/137 52/104/138
s 4
f 46/105/139 47/87/119 54/90/122
s 3
f 48/83/115 45/106/140 51/84/116
s 4
f 46/105/139 30/107/141 55/108/142 47/87/119
s off
f 47/100/143 55/109/144 56/110/145 48/99/146
s 3
f 48/83/115 56/111/147 29/112/148 45/106/140
s off
f 30/113/149 46/114/150 45/115/151 29/116/152
f 43/76/153 44/75/154 56/110/155 55/109/156
f 44/121/157 32/122/158 29/123/159 56/124/160
f 55/120/161 30/119/162 31/118/163 43/117/164
